# xmcd
#
# Track frame offsets:
#	150
#	10344
#	24021
#	39386
#	51496
#	66417
#	79135
#	89648
#	98913
#	112926
#	124406
#	139532
#	155255
#	172694
#	185332
#	201501
#	220382
#	237680
#	250011
#	262681
#	272496
#
# Disc length: 3798 seconds
#
# Revision: 1
# Processed by: cddbd v1.5.1PL2 Copyright (c) Steve Scherf et al.
# Submitted via: audiograbber 1.83.01
#
DISCID=200ed415
DTITLE=Charlie Dicks - Country Van Toeka Tot Nou
DYEAR=1900
DGENRE=Country
TTITLE0=Medals For Mothers
TTITLE1=Little Pieces
TTITLE2=Eenders En Anders
TTITLE3=Wishes
TTITLE4=Byeboerwa
TTITLE5=Is It Realy Love
TTITLE6=Da Doo Ron Ron
TTITLE7=Woelinge (Diep Binne My)
TTITLE8=Heartaches By The Numbers
TTITLE9=Baby What About You
TTITLE10=Clap Your Hands
TTITLE11=Ek Weet, Ek Sal
TTITLE12=Let's Keep It That Way
TTITLE13=Somewhere Between
TTITLE14=Huise Van Glas
TTITLE15=Kaatjie Van Die Baan
TTITLE16=My Broken Souvenirs
TTITLE17=Walk In The Room
TTITLE18=Do Me With Love
TTITLE19=Kinders Van Die Wind
TTITLE20=Mi Vida Loca (My Crazy Life)
EXTD=
EXTT0=
EXTT1=
EXTT2=
EXTT3=
EXTT4=
EXTT5=
EXTT6=
EXTT7=
EXTT8=
EXTT9=
EXTT10=
EXTT11=
EXTT12=
EXTT13=
EXTT14=
EXTT15=
EXTT16=
EXTT17=
EXTT18=
EXTT19=
EXTT20=
PLAYORDER=
